<svg fill="#fff" height="48px" width="48px" version="1.1" xmlns="http://www.w3.org/2000/svg" xmlns:xlink="http://www.w3.org/1999/xlink" viewBox="0 0 1.92 1.92" xml:space="preserve"><path d="M1.38 0H0.54C0.24 0 0 0.24 0 0.54v0.84c0 0.3 0.24 0.54 0.54 0.54h0.84c0.3 0 0.54 -0.24 0.54 -0.54V0.54c0 -0.3 -0.24 -0.54 -0.54 -0.54M0.72 1.5c0 0.036 -0.024 0.06 -0.06 0.06H0.42c-0.036 0 -0.06 -0.024 -0.06 -0.06V0.78c0 -0.036 0.024 -0.06 0.06 -0.06h0.24c0.036 0 0.06 0.024 0.06 0.06zM0.54 0.66c-0.102 0 -0.18 -0.078 -0.18 -0.18s0.078 -0.18 0.18 -0.18 0.18 0.078 0.18 0.18 -0.078 0.18 -0.18 0.18m1.02 0.84c0 0.036 -0.024 0.06 -0.06 0.06h-0.18c-0.036 0 -0.06 -0.024 -0.06 -0.06v-0.39c0 -0.048 -0.042 -0.09 -0.09 -0.09s-0.09 0.042 -0.09 0.09V1.5c0 0.036 -0.024 0.06 -0.06 0.06h-0.18c-0.036 0 -0.06 -0.024 -0.06 -0.06V0.78c0 -0.036 0.024 -0.06 0.06 -0.06h0.24c0.018 0 0.03 0.006 0.042 0.018q0.054 -0.018 0.108 -0.018c0.18 0 0.33 0.15 0.33 0.33z"/></svg>